<?xml version="1.0" encoding="UTF-8"?>
<svg version="1.1" viewBox="0 0 2000 2000" width="499" height="500" xmlns="http://www.w3.org/2000/svg">
<path transform="translate(970,426)" d="m0 0h18l30 1 35 4 31 6 36 9 27 9 23 10 28 14 17 10 22 15 18 14 10 9 8 7 8 8 2 1v2l4 2 9 10 7 6 1 3-5-1-16-10-11-9-10-9-11-9-16-12-18-11-15-9-16-9-30-13-36-12-27-6-39-3h-13l-25 2-30 5-23 6-26 9-30 14-19 10-17 11-15 10-12 9-17 14-12 11h-2v2h-2v2l-5 4-7 8-14 15-10 13-5 8-2 5v6l4 2 10 7 36 24 15 9 26 14 33 15 24 10 9 4-2 4-11 14-2 2-7-1-18-8-33-16-22-12-27-18-17-12-21-16-8-5-5 1-5 6-11 23-11 27-10 38-6 28-4 28-1 13v59l2 4 13 6 12 4 6-1 12-11 15-14 12-11 14-12 10-8 18-14 18-13 23-15 20-12 24-13 27-13 23-9 34-11 26-6 27-5 36-4 22-1h16l20 1 32 4 28 5 30 7 40 12 34 12 30 13 28 13 9 5h5l12-11 7-7 8-7 59-59 2-3h2l2-4 12-12h3l13 24 13 23 9 18v7l-8 11-11 12-9 10-7 8-15 16-9 9-3 4 1 5 27 18 18 11 39 26 20 15-1 2-12-7-11-6-16-9-25-13-23-11-28-14-5 1-11 9-11 10-11 9-10 9-10 8-12 10-11 9-15 12-12 9-18 13-20 13-21 12-29 15-25 11-34 13-28 9-38 10-33 7-26 4-31 3h-47l-32-2-25-3-40-8-24-6-33-11-26-11-33-15-17-8-8-6v-2l9 1 39 12 42 13 45 11 29 5 19 2 16 1h51l32-2 24-3 18-3 31-8 18-6 30-13 19-10 21-12 25-17 19-14 13-11 11-9 15-14 8-7 24-22 8-7 42-42 3-4v-3l-42-18-24-8-25-7-24-5-32-4-30-2h-25l-44 4-32 5-27 6-27 7-29 9-21 7-34 14-33 16-16 8-22 12-28 17-16 10-12 8-19 14-17 13-12 9-11 9-13 11-9 8-8 5 1 7 7 24 13 30 11 22 10 17 12 17 10 13 12 14 15 15 7 5h20l28-3 31-6 26-7 26-9 14-6 4 1-13 8-22 12-25 12-24 9-37 11h-2l6 8 18 14 24 14 16 8 18 8 19 7 26 7 32 6 22 3 15 1h22l26-2 36-6 22-6 25-9 24-11 22-12 15-10 16-11 14-11 11-9 15-14 22-22 9-11 11-13 13-18 13-21 9-17 7-17 8-13 5-4-1 5-11 26-14 28-12 20-7 11-12 17-9 12-24 28-7 8h-2l-2 4-9 9-8 7-14 12-19 14-22 14-21 12-22 11-28 11-30 10-24 7-36 7-34 5-31 3-14 1h-22l-41-3-28-4-27-6-24-8-27-11-31-15-22-13-19-12-18-13-14-10-13-11-15-13-13-13-7-8-12-14-10-12-14-20-13-22-12-22-12-26-11-29-6-20-6-30-4-31-2-32v-13l1-23 4-29 7-35 6-22 8-24 16-36 12-22 12-19 14-20 8-10 13-15 9-10 7-8 20-20 11-9 13-11 24-16 23-14 24-14 23-12 27-11 35-11 32-8 32-5 10-1zm-155 82-12 5-27 16-15 9-14 10-14 11-13 12-3 4 7 8 11 9 3 2 5-1 7-6 7-8 12-14 14-15 34-34 3-4-1-4zm-108 74-10 9-14 14-9 11-10 13-14 19-12 21-12 23-8 19-7 18-10 32-6 27-2 13v9l3 3 28 13 23 10 14 5h5l2-11 6-67 5-30 8-28 10-28 9-20 13-25 10-17 1-8-10-13-8-10-2-2zm-114 255-1 4v12l3 35 5 29 5 20 10 30 12 29 14 27 11 18 10 15 10 13 11 12 9 6 15 4 36 6 16 3h7l1-3-5-10-8-10-14-17-14-19-9-15-12-23-12-28-12-37-7-30-4-25-6-5-18-12-21-13-26-15zm144 290-1 1v5l14 10 10 7 15 10 21 12 23 12 21 8 37 12 25 5 19 3h9v-5l-11-6-21-10-22-12-23-13-19-12-13-10-9-7-10-9-2-1z" fill="#736F74"/>
<path transform="translate(1474,667)" d="m0 0h3l13 24 13 23 9 18v7l-8 11-11 12-9 10-7 8-15 16-9 9-3 4 1 5 27 18 18 11 39 26 20 15-1 2-12-7-11-6-16-9-25-13-23-11-28-14-5 1-11 9-11 10-11 9-10 9-10 8-12 10-11 9-15 12-12 9-18 13-20 13-21 12-29 15-25 11-34 13-28 9-38 10-33 7-26 4-31 3h-47l-32-2-25-3-40-8-24-6-33-11-26-11-33-15-17-8-8-6v-2l9 1 39 12 42 13 45 11 29 5 19 2 16 1h51l32-2 24-3 18-3 31-8 18-6 30-13 19-10 21-12 25-17 19-14 13-11 11-9 15-14 8-7 24-22 8-7 42-42 3-4v-3l-42-18-24-8-25-7-24-5-32-4-30-2h-25l-44 4-32 5-27 6-27 7-29 9-21 7-34 14-33 16-16 8-22 12-28 17-16 10-12 8-19 14-17 13-12 9-11 9-13 11-9 8-8 5-4-1-10-8-6-8-2-5v-12l6-8 16-15 8-8 7-1 12-11 15-14 12-11 14-12 10-8 18-14 18-13 23-15 20-12 24-13 27-13 23-9 34-11 26-6 27-5 36-4 22-1h16l20 1 32 4 28 5 30 7 40 12 34 12 30 13 28 13 9 5h5l12-11 7-7 8-7 59-59 2-3h2l2-4z" fill="#C2895C"/>
<path transform="translate(1347,810)" d="m0 0 2 1v3l1 2-2 5-1 2-4 2 1 7-2 5 1 6-6 4v6l-4 2-2 5v2l1 5-2 3v6l-2 6-2 4-1 7h-2l-2 6-3 5h-2l1 7v4h-3l-6 7-4 1v2l-5 5 5-2 3 1-19 12-18 10-27 14-25 11-34 13-28 9-38 10-33 7-26 4-31 3h-47l-32-2-25-3-40-8-24-6-33-11-26-11-33-15-17-8-8-6v-2l9 1 39 12 42 13 45 11 29 5 19 2 16 1h51l32-2 24-3 18-3 31-8 18-6 30-13 19-10 21-12 25-17 19-14 13-11 11-9 15-14 8-7 24-22 8-7 5-4-4 10 5-1 7-7 7-8 5-5 5-4 6-7z" fill="#C2895C"/>
<path transform="translate(1474,667)" d="m0 0h3l13 24 13 23 9 18v7l-8 11-11 12-9 10-7 8-15 16-9 9-3 4 1 5 27 18 18 11 39 26 20 15-1 2-12-7-11-6-16-9-25-13-23-11-28-14-5 1-11 9-11 10-11 9-10 9-10 8-12 10-11 9-15 12-12 9-18 13-5 3-7 3-3-1 4-5h2v-2l6-4 5-5 1-3v-7h2l2-5 3-6h2l-1-4 3-5 1-7 1-3 1-5 1-6-2-2 4-6 3-2v-6l6-4-1-6 2-5-1-7 4-3 3-6-2-3v-2l-6 5-8 8h-2l-2 4-7 8-4 4h-2l-1 3-6 1 3-7 3-6 36-36 3-4v-3l-14-6-3-5-6-1-3-3h-3l-3-3 3-3 16 1 6 1h9l1 1h13l12-11 7-7 8-7 59-59 2-3h2l2-4z" fill="#AC663A"/>
<path transform="translate(873,773)" d="m0 0 4 2 8-1 12 5 6 3v2l2 1 2 6h-2v10l-3 1-2 5-6 7-1 4-21 11-25 15-18 11-15 10-14 10-21 16-16 12-11 9-13 11-9 8-8 5-4-1-10-8-6-8-2-5v-12l6-8 16-15 8-8 7-1 12-11 15-14 12-11 14-12 10-8 18-14 18-13 7-1 6-3 1-2 4 1 11-6z" fill="#A26D3A"/>
<path transform="translate(1051,1338)" d="m0 0h33l1 4 3 9 4 2 9 9 8 7 14 12 12 11 11 9 11 8 3 1v-31l-1-35-1-5 7-1h24l1 2-2 4-1 9-1 34v59l-1 1-13 1h-13l-3-3-3-5-4-5-8-7-8-8-8-7-14-12-8-7-15-13-9-6-3-1-1 7v53l1 13-3 1h-29l5-6 1-6 1-19v-50l-1-20-1-8z" fill="#C2895C"/>
<path transform="translate(1019,1482)" d="m0 0h86l17 3 12 5 9 7 8 11 4 10 2 12-1 16-4 13-5 10-6 7-10 7-8 4-19 4-16 1h-70l-1-3 1-3 1-21zm37 15-9 1v75l6 2h38l16-2 12-6 7-7 3-7 1-5v-21l-2-9-6-10-10-7-10-3-7-1z" fill="#A36E3B"/>
<path transform="translate(797,1482)" d="m0 0h32l2 2 3 7 6 6v2l4 2 13 13 8 7 10 9 12 11 10 9 4 3 7 1-1-72h27l-1 3-1 17v79l1 10-3 1-29-1-2-10-10-9-10-8-14-13-8-7-15-13-11-10-7-4h-3v24l3 50-2 1h-26l-1-3 1-5 2-44v-40z" fill="#C2895C"/>
<path transform="translate(1305,1480)" d="m0 0h26l17 3 13 5 10 6 8 7 9 14 4 10v21l-4 11-8 12-8 8-14 8-16 6-11 2h-29l-14-3-15-6-12-7-9-10-6-12-3-9-1-12 3-11 8-16 6-8 8-7 15-7 16-4zm1 16-12 3-8 4-6 5-7 10-3 10v16l3 9 8 10 9 7 12 5 7 1h17l14-3 9-5 10-9 5-7 2-7v-17l-3-10-9-10-8-6-10-4-10-2z" fill="#AC673B"/>
<path transform="translate(683,1480)" d="m0 0h21l19 3 16 6 10 7 8 8 6 10 4 13v16l-3 12-7 13-7 7-16 10-12 5-15 3h-31l-17-4-10-4-13-9-9-10-7-15-1-4v-19l4-13 7-12 9-9 10-6 15-5zm3 15-15 3-12 6-9 10-4 8-1 4v15l3 11 6 8 7 7 10 6 6 2 9 1h12l14-2 12-5 10-9 6-7 2-8v-13l-3-12-6-9-9-8-11-5-15-3z" fill="#AC673B"/>
<path transform="translate(1467,1479)" d="m0 0h10l22 3 32 8 5 1-1 4-7 8-5 9-5-3-9-6-13-4-14-2h-25l-11 4-4 6v8l4 4 13 3 13 2 26 2 15 3 10 4 7 6 5 10 1 5v10l-5 10-5 6-10 6-18 6-18 2-19-1-20-4-19-6-9-2 1-5 10-16h4l9 8 15 5 12 2h23l11-2 8-5 4-6v-7l-4-4-12-3-43-5-14-3-10-5-4-5-4-8-1-3v-12l5-12 8-7 11-5 14-3z" fill="#C2895C"/>
<path transform="translate(1213,1335)" d="m0 0 9 1 103 1 12 1-2 5-12 13-9 11-11 12-7 8-10 11-9 11-10 11-5 10 19 1h57l1 11v10h-4l-2-2-20-1-87-1-13-1 5-9 7-7 9-11 13-14 9-11 13-14 9-11 7-10 3-5-73-1-1-2z" fill="#A26D3A"/>
<path transform="translate(1406,1338)" d="m0 0h42l-2 6 1 7 9 17 16 26 15 26 11 17 7 10v1h-36l-3-8-5-12-5-9h-21l-41 1-9 17v6l1 4-22 1h-15l6-7 7-10 12-21 14-26 9-16 9-17 1-7zm20 29-5 5-6 9-8 17-1 8 19 1h23l-1-6-9-20-7-11z" fill="#C2895C"/>
<path transform="translate(562,1338)" d="m0 0h39v12l15 25 12 21 9 16 6 11 8 12 8 9 5 3v1h-19l-23-1-1-3-2-10-6-12-1-3h-30l-33 1-5 10-3 8 1 10-37 1 6-8 8-14 15-27 10-17 12-21 7-11v-8zm17 27-6 9-13 25-1 7 14 1h26l3-1-1-7-4-11-6-11-8-10z" fill="#C2895C"/>
<path transform="translate(941,1338)" d="m0 0h25l2 1 2 12 6 11 13 22 15 27 11 20 7 10 6 5-2 2-36-1-2-10-7-16-2-2h-36l-26 1-7 14-1 3v10l-1 1h-35l2-4 7-8 15-26 10-18 12-21 10-18 2-10v-4zm7 29-5 5-7 11-8 16-1 7 39 1 5-1-6-16-9-16-5-6z" fill="#C2895C"/>
<path transform="translate(527,1479)" d="m0 0h14l19 3 21 7 11 5 8 3-3 5-7 8-4 4-9-8-13-6-16-4h-26l-16 4-11 7-7 9-4 10v19l4 10 8 9 8 5 15 5 8 1h15l17-3 12-4 10-6 5-4 5 3 7 11v3l-24 10-18 6-13 2h-25l-16-3-16-6-11-7-10-10-6-11-3-9-1-11 2-14 5-12 6-8 8-8 10-6 10-4 20-4z" fill="#A36D3B"/>
<path transform="translate(679,1338)" d="m0 0h33l-1 17-1 76h90l1 1 1 15-2 6-3-1-2-3-121-1 5-6 2-7v-86z" fill="#C28A5E"/>
<path transform="translate(873,773)" d="m0 0 4 2 8-1 12 5 6 3v2l2 1 2 6h-2v10l-3 1-2 5-6 7-1 4-21 11-25 15-3-1 2-4 3-2-3-7-5-2v-2l-7 1-3-3-9-2-6-2h-6l-2 2-7 2-10 6h-2v2l-9 6-5 3-4 4-2 4-4 3h-3l-1 2-4 1 3-6 17-16 13-11 10-8 18-14 18-13 7-1 6-3 1-2 4 1 11-6z" fill="#A26D3A"/>
<path transform="translate(743,950)" d="m0 0 9 1 39 12 42 13 45 11 29 5 26 3v2l3-1 4 1h4v2l4-1 6 1-3 2 4 1h14l2 1 1 4 7 1v-2h2l1 4-2 2-12 1-6 2 5 1-4 3-2 1h-12l-25-3-40-8-24-6-33-11-26-11-33-15-17-8-8-6z" fill="#A36E3B"/>
<path transform="translate(1019,1482)" d="m0 0h86l17 3 12 5 9 7 8 11 4 10 2 12v7l-4 4-14 1-2-4-3-1-1-4-3-3-3-12-6-10-9-6-10-3-7-1h-49v12l-6-1-8-5-3-2v-2l-3-1-2-1-4-10z" fill="#AC673A"/>
<path transform="translate(821,1338)" d="m0 0h31l-1 16v88l1 4-1 1-32 1v-4l2-5 1-13v-82z" fill="#C1885B"/>
<path transform="translate(1187,1482)" d="m0 0h29l-2 5-1 7v73l3 21 1 3-13 1h-20l1-6 2-17z" fill="#A36E3B"/>
<path transform="translate(629,1543)" d="m0 0 13 4 4 2v2l3 1 6 8 10 9 12 5 9 1h12l14-2 8-1 7-1 7-2 3 1v2l6 1v6l-9 6-12 5-15 3h-31l-17-4-10-4-13-9-9-10-6-12v-6l3-1v-2z" fill="#A36D3B"/>
<path transform="translate(1243,1417)" d="m0 0 10 2 6 3 3 5v3l19 1h57l1 11v10h-4l-2-2-20-1-87-1-13-1 5-9 7-7 9-11z" fill="#A36D3B"/>
<path transform="translate(1254,1546)" d="m0 0 11 1 6 2v2h2l8 11 9 7 12 5 7 1h17l14-2 11 1 7-1 5 1h4l1 5-8 5-14 6-15 3h-29l-14-3-15-6-12-7-9-10-3-6v-5l2-6v-2z" fill="#A36D3B"/>
<path transform="translate(693,1419)" d="m0 0 7 1 3 3 7 3v5h90l1 1 1 15-2 6-3-1-2-3-121-1 5-6 3-8 1-6h2l2-5 3-3z" fill="#A26D3A"/>
<path transform="translate(562,1338)" d="m0 0h39v12l15 25 4 7-1 4-5 5-4 1-4-1-9-1-7-13-8-10h-4l-5 9h-5l-4-5-3-1-2-9 1-5 3-5v-8z" fill="#AC673A"/>
<path transform="translate(527,1479)" d="m0 0h14l19 3 21 7 11 5 8 3-3 5-7 8-4 4-9-8-13-6-16-4h-26l-16 4-8 5-6 1-5-2v-2l-5-1-1-3 1-8 11-5 16-4z" fill="#AD683D"/>
<path transform="translate(1425,1559)" d="m0 0 4 2 8 7 15 5 12 2h23l11-2 10-2 10 1 3 2 2 8-12 6-13 4-18 2-19-1-20-4-19-6-9-2 1-5 10-16z" fill="#A36E3B"/>
<path transform="translate(1467,1479)" d="m0 0h10l22 3 32 8 5 1-1 4-7 8-5 9-5-3-9-6-13-4-14-2h-25l-11 4-3 4-10-2v-2l-9-1 1-7 8-6 13-5 10-2z" fill="#AD683C"/>
<path transform="translate(941,1338)" d="m0 0h25l2 1 2 12 6 11 7 12 1 6-3 8-1 1h-7l-9-3-5-5-7-11-4-2-5 5-2 3-5-2-6-5-2-6v-8l3-10v-6z" fill="#AC673B"/>
<path transform="translate(1410,1338)" d="m0 0h38l-2 6 1 7 9 17 6 10-1 8-3 3h-2v-2h-10l-8-4-7-12-5-3-4 4h-7l-4-2-3-4-1-8 3-10-1-9z" fill="#A26D3A"/>
<path transform="translate(1283,1363)" d="m0 0 4 4v3l5 1 5 2 9-1 2 2-15 16-9 11-13 14-7 10-1 2h-2l-3-5-7-3-8-1-6 2-2-1 12-13 9-11 13-14 9-11z" fill="#C2895C"/>
<path transform="translate(1020,1488)" d="m0 0 3 4 2 5 4 3v2l14 7 3 1v-12h1v66h-1l-1-9-9-1-7 3-5 6h-2v2h-2z" fill="#C2895C"/>
<path transform="translate(810,819)" d="m0 0h7v2l4-1 6 2 5 2v2h9l2 2 5 3 2 7-4 1-1 6-19 12-15 10-4 1-2-1 5-5 5-6 3-3 8-3v-4l-2-4-8-1-15 1v-2l-8 3-7 1h-3l-1 2-10 1h-2l1-3 4-4 5-3 7-5h2v-2l14-8 6-2z" fill="#AC663A"/>
<path transform="translate(480,1491)" d="m0 0h2v9l7 3v2h8l-6 7-6 10-1 4v23l-9-2-6-3-5 1-3 14-2-3-3-9-1-11 2-14 5-12 6-8 8-8z" fill="#C2895C"/>
<path transform="translate(1267,1492)" d="m0 0 1 3-1 4 1 2 7 2 7 3-4 6-5 9-2 7v16l1 7-1-2-17-2-3 1 1 3-1 5h-2l1 3-2 1-5-14-1-12 3-11 8-16 6-8z" fill="#C2895C"/>
<path transform="translate(641,1493)" d="m0 0 2 2-1 6 3-1 14 4-6 8-5 7-2 7v15l2 10h-2v-2l-10-3-7-2-5 1v2l-2 1-2 3-1-4v-19l4-13 7-12 9-9z" fill="#C2895C"/>
<path transform="translate(1130,1530)" d="m0 0 4 2 1 5 4 4 16-1 1-2v8l-4 13-5 10-6 7-10 7-8 4h-3l1-6-5-1-11-4-3-3 10-3 8-5 6-7 3-10z" fill="#C2895C"/>
<path transform="translate(1366,1531)" d="m0 0 5 1 4 4 13 1 4-1v10l-4 11-8 12-8 8-4 2-1-5-7 1-3-1-9 1-8-1v-2l9-5 10-9 4-6 2-7z" fill="#C1885B"/>
<path transform="translate(1062,1401)" d="m0 0 9 3 2 2 3 39v2l-3 1h-29l5-6 1-6 2-28 8-6z" fill="#A36D3B"/>
<path transform="translate(800,1549)" d="m0 0h7l7 3 6 5 2 3 2 31-2 1h-26l-1-3 1-5 2-28z" fill="#A46E3B"/>
<path transform="translate(766,1527)" d="m0 0h1v16l-3 12-7 13-7 7-7 4-1-5-5-2-4-2-9 3h-5l-1-2 10-6 9-9 3-6 2-16 5-1 5 4v2l4-1 10 3z" fill="#C2895C"/>
<path transform="translate(907,1482)" d="m0 0h27l-1 3-1 17-1 24-12 1-2-4h-2l-2-5h-2l-2-3-1-9z" fill="#A26D3A"/>
<path transform="translate(679,1338)" d="m0 0h33l-2 35-5 3h-7l-8-4v-4h-2l-2-5-2-1-3-13z" fill="#A26C3A"/>
<path transform="translate(1165,1338)" d="m0 0h24l1 2-2 4-3 33-7 5-9-4-4-8-4-16-3-15z" fill="#A26D3A"/>
<path transform="translate(1187,1482)" d="m0 0h29l-2 5-1 7-2 32-4-1-6-3-4-4-4-1-4-6 1-2h-2z" fill="#A26C3A"/>
<path transform="translate(821,1338)" d="m0 0h31l-2 35-4 2h-9l-7-4-5-9-3-18z" fill="#A26D3A"/>
<path transform="translate(1188,1509)" d="m0 0h2l1 4 4 4 5 2 1 3 4 1 6 3v-12h1v47l-1-2-3 1-2-3h-17l-1 4z" fill="#C2895C"/>
<path transform="translate(1326,1338)" d="m0 0h11l-2 5-12 13-2 2-3-1-4 1-16-4-6-2v-2l-4 1-6-2h-7l-5-3-1-2 1-2-2-1 11-2h31z" fill="#AC663A"/>
<path transform="translate(833,1414)" d="m0 0h6l5 3 6 8 1 17 1 4-1 1-32 1v-4l2-5h2v-10l3-9 2-1 2-4z" fill="#A36D3A"/>
<path transform="translate(543,1416)" d="m0 0 7 2-6 12-3 8 1 10-37 1 6-8 6-10 4-3h2v-3l5-2 4-3h2l1-3h4z" fill="#A46E3C"/>
<path transform="translate(907,1419)" d="m0 0h7l1 4-6 14v10l-1 1h-35l2-4 7-8 7-12 4-2h2l5-2h6z" fill="#A46E3B"/>
<path transform="translate(603,1357)" d="m0 0 3 1 11 19 3 5-1 4-5 5-4 1-4-1-9-1-7-13-7-9v-3l7-1v-1l9-2 4-2z" fill="#A36D3A"/>
<path transform="translate(1444,1338)" d="m0 0 4 1-2 5 1 7 3 7-2 2-1 6-1 2h-6l-5-3-5-2-9-6-5-9-2-2 2-6 6-1z" fill="#AC673B"/>
<path transform="translate(1387,1418)" d="m0 0 1 2 4 1-1 5-6 11v6l1 4-22 1h-15l6-7 7-10 5-5 9-5z" fill="#A36E3B"/>
<path transform="translate(797,1482)" d="m0 0h32l2 2 3 7 7 8-1 5-5 1-3-2-1 1h-7l-13-4-3-3v-2l-4-2v-3h-2v-3l-5-1z" fill="#A46F3C"/>
<path transform="translate(941,1338)" d="m0 0h25l2 1 2 14-2 2-2 5-6 3-9-3-5-2h-2v-2h-2l-2-5h-2l-1-6-2-3v-3z" fill="#AD683C"/>
<path transform="translate(730,871)" d="m0 0 3 2-8 8 3 1-8 8-2 3h-2l-1 3-5 5-2 9 1 6 4 6 8 4h10v2l-9 3 4 1v2l-4 2-4-1-10-8-6-8-2-5v-12l6-8 16-15z" fill="#AB663A"/>
<path transform="translate(1327,889)" d="m0 0 2 2 1 5h2l-2 5-1 3h2l1-2 8-5h2v-2h2l1-2 2 7-16 12-18 13-5 3-7 3-3-1 4-5h2v-2l6-4 5-5 1-3v-7h2l2-5 3-6h2v-2h2z" fill="#A26D3A"/>
<path transform="translate(1019,1483)" d="m0 0h16l5 5 7 4 17 4v1l-8 1h-10v12l-6-1-8-5-3-2v-2l-3-1-2-1-4-10z" fill="#A26D3A"/>
<path transform="translate(1058,1339)" d="m0 0h21l6 5 3 5v2l3 1 1 8-3 2-1-3-6 1-8-2-8-7-8-4-1-4z" fill="#AB663A"/>
<path transform="translate(1383,1509)" d="m0 0 4 4 4 8 1 4v11l-4 2-13-1-4-3v-2l-5-1-3-12 7 2 5 4 7 1h3v-5l-4 1h-7l-7-4 4-1h7z" fill="#A36D3B"/>
<path transform="translate(664,1483)" d="m0 0 4 1-1 3 2 5 11 3-1 2-13 4-5 3h-7l-9-3h-3v-9l12-6z" fill="#A46D3B"/>
<path transform="translate(1187,1482)" d="m0 0h29l-2 5-2 19h-3l-4-1v-2l-7-2-3-6-5-4v-2l-3-1z" fill="#AC673B"/>
<path transform="translate(500,1483)" d="m0 0h4l2 9 8 4-2 2-10 4-4 3-6 1-5-2v-2l-5-1-1-3 1-8 11-5z" fill="#A36D3B"/>
<path transform="translate(1165,1338)" d="m0 0h24l1 2-2 4-1 9-4 3h-2l-1 3-6 1-5-5-1-4h-2l-3-8-2-4z" fill="#AD683C"/>
<path transform="translate(1446,1482)" d="m0 0 3 1-1 9 4 2 1 4-8 4-2 3-10-2v-2l-9-1 1-7 8-6z" fill="#A36E3B"/>
<path transform="translate(907,1482)" d="m0 0h27l-1 3-1 17-11-1-5-2-7-11v-2h-2z" fill="#AD683D"/>
<path transform="translate(798,1431)" d="m0 0 3 1 1 15-2 6-3-1-2-3-75-1v-1l70-1 5-1 1-4h-8l-6-3-7-1-10-2-7-1-3-1v-1z" fill="#C2895C"/>
<path transform="translate(689,1338)" d="m0 0h23l-1 17-4-2-1 3-8 3-5-3-3-9 1-2h-2l-1-6z" fill="#AC673B"/>
<path transform="translate(828,1338)" d="m0 0h24l-1 16-8 1h-7l-4-4-1-4h-2v-4l-3-1-1-3z" fill="#AD693D"/>
<path transform="translate(1450,741)" d="m0 0 1 4-4 14v6l-3 8-6-1-1 5-2 1-2-9v9l-2 2-2-2-1-5 2-9 2-3h2v-2h2l1-2h2l3-9 4-4z" fill="#A26C3A"/>
<path transform="translate(931,1339)" d="m0 0h4l4 10-1 2h2l2 5h2v2l3-1 8 4 6 1 5-3 2-5 3-1 5 10-5 9-9-1-8-4-3-1-5-5-6-4-4-4-2-5h-2z" fill="#A26D3A"/>
<path transform="translate(1410,1338)" d="m0 0h34v1l-28 1-2 10 2 5 5 5v2l4 2 2 3-5 5h-7l-4-2-3-4-1-8 3-10-1-9z" fill="#A26C3A"/>
<path transform="translate(978,1367)" d="m0 0 3 3 3 8-2 9-2 2h-7l-9-3-5-5-2-6 6-1 1 1 10 1z" fill="#A26D3A"/>
<path transform="translate(603,1357)" d="m0 0 3 1 5 9h-2l1 4h-3v4l-5 1-4-2-11-1-4-5v-3l7-1v-1l9-2 4-2z" fill="#A36D3A"/>
<path transform="translate(828,980)" d="m0 0h2v2l9 1 2 2 2-1 11 4v2l6 2 7 4-2 2-2 3-5-1-1 2-21-7-1-3 2-3 1 3 4-1 12 4-3-4-9-1v-2l-9-1-2-1v-3l-3-1z" fill="#AB683B"/>
<path transform="translate(586,1558)" d="m0 0 5 3 7 11v3l-7 2-1-4-2-1h-15l-1 2h-9v-3l12-5z" fill="#C2895C"/>
<path transform="translate(1286,1353)" d="m0 0h3v2l6 2v2l10 3 9 1v2l-9 1-13-5v4l7 1 1 1h13l-4 6h-7l-7 1-8-4-3-6 2-6 2-3h-8v-1z" fill="#AD683C"/>
<path transform="translate(740,1522)" d="m0 0 6 2 11 5h6v-2l3-1v15l-8-1-6-1-5-5h-5l-2-8z" fill="#A36D3A"/>
<path transform="translate(1213,1335)" d="m0 0 9 1 103 1v1l-102 1-4 1v10l4 2 39 1v1h-47l-1-2z" fill="#C28A5D"/>
<path transform="translate(1509,854)" d="m0 0 5 1 15 10 17 12 9 7-1 2-12-7-11-6-16-9-4-2z" fill="#837978"/>
<path transform="translate(664,1483)" d="m0 0 4 1-1 3 2 5 11 3-1 2-14 4v-2l-6-1 2-1-1-4-2-1-2-5-2-1z" fill="#A56E3C"/>
<path transform="translate(1327,908)" d="m0 0 6 1-5 5-15 11-5 3-7 3-3-1 4-5h2v-2l6-4 5-5 5-1z" fill="#AD693D"/>
<path transform="translate(1130,1523)" d="m0 0 7 2 5 4 7 1 7-2 1 2v7l-2 3h-2v-2l-5-1-5 1-7-6-2-5-4-2z" fill="#A36D3B"/>
<path transform="translate(1330,1431)" d="m0 0h8l1 11v10h-4l-2-2-20-1v-1h20l2-7v-3h-2v-2l-17-2v-2z" fill="#C2895C"/>
<path transform="translate(822,1343)" d="m0 0 4 2 3 6 2 5 4 5 2 1v3l-3-1-5-5-2-3 2 5 1 3 3 1 3 4 3 1 2 5-7-1-5-4-4-8z" fill="#AC663A"/>
<path transform="translate(929,1353)" d="m0 0h2l3 7 9 8v2l2 1-4 5-5-2-6-5-2-6v-8z" fill="#AC673B"/>
<path transform="translate(1188,1494)" d="m0 0 1 3h2l4 5-1 3-3-2 4 6v5h2v2l6 2 5 2 2 4-1 2-8-4-4-4-4-1-4-6 1-2h-2z" fill="#AC663A"/>
<path transform="translate(760,1511)" d="m0 0 3 3 2 5-1 4-7 3-5-1-9-5v-2l-2-1 14 1 4-2z" fill="#A26D3A"/>
<path transform="translate(1289,1483)" d="m0 0h3v6l3 4 9 3-4 2h-7l-8-4-2-8 2-2z" fill="#A36D3B"/>
<path transform="translate(743,950)" d="m0 0 9 1 23 7-4 2-4-1h-6l-2 3-11-6-5-4z" fill="#C48D62"/>
<path transform="translate(1458,1373)" d="m0 0 3 3 1 7-2 5-4 1v-2h-10l-8-4-2-5 5 1v2l5 1 3 2 6-1z" fill="#AC673B"/>
<path transform="translate(863,984)" d="m0 0 25 5 28 4 10 1-1 3h-3v-2l-7 2-8-1-7-2-8-2-2 1v-2l-3 1-13-3-7-1v-2l-4-1z" fill="#C2895C"/>
<path transform="translate(1456,1370)" d="m0 0 2 1v7l-3 6-7 1-4-3-3-1-1-2-4-1v-2l4-1 4 2h6l5-5z" fill="#A26D3A"/>
<path transform="translate(1130,1525)" d="m0 0 5 2 2 5 3 2v2l4 1 5-1 4 2v3l-14 1-2-4-3-1-1-4-3-3z" fill="#AC663A"/>
<path transform="translate(1454,1366)" d="m0 0 3 4-4 6-3 2-9-1-3-1-3 1-6-9 7 1 4 2v2l10 1v-2h2z" fill="#AD683B"/>
<path transform="translate(1126,1515)" d="m0 0 6 2 2 4 3 1 3 3 4 1h8l4-3v5l-7 3-7-1-6-4-6-3-1 4-2-9z" fill="#AC673B"/>
<path transform="translate(1133,1518)" d="m0 0 6 2 11 1 3-3h2v7l-3 2h-8l-7-3-4-5z" fill="#A26D3A"/>
<path transform="translate(1410,1348)" d="m0 0h1v12l4 5 3 1v2l5 1-1 3h-7l-4-2-3-4-1-8z" fill="#AC663A"/>
<path transform="translate(1526,866)" d="m0 0 6 3 4 1 14 10 5 4-1 2-12-7-11-6-5-5z" fill="#CFA380"/>
<path transform="translate(1380,865)" d="m0 0 5 2-6 7-9 7-2-2 3-7 8-5z" fill="#A56F3C"/>
<path transform="translate(681,1344)" d="m0 0 4 2 2 7-1 4 3 1-2 2 2 2 1 4 2 2 2 4h-4v-4h-2l-2-5-2-1-3-13z" fill="#AF6B3F"/>
<path transform="translate(1412,1348)" d="m0 0 3 4 2 4 4 4v2l4 2 2 3-4 2-10-10-1-2z" fill="#AC663A"/>
<path transform="translate(1362,778)" d="m0 0v3h-2l1 6-2 6-2 5h-1l-1-11 1-2h-2v-3l-3 1v-2l6-2z" fill="#A26D3A"/>
<path transform="translate(1169,1437)" d="m0 0h7l2 4-4 6-5-2-4-3 1-3z" fill="#A26D3A"/>
<path transform="translate(1350,796)" d="m0 0 1 4-7 5-27 27-2-1z" fill="#B87A4D"/>
<path transform="translate(958,1378)" d="m0 0 5 1 4 2h6l2 2-4 1 1 4-6-1-6-4z" fill="#AC673B"/>
<path transform="translate(693,1429)" d="m0 0h9l2 1 9 1-4 2h-13l-8 2-1 5-2-3 4-6z" fill="#AC673B"/>
<path transform="translate(1418,776)" d="m0 0 2 1-1 9-5 15-3-1 2-7 1-10z" fill="#A26D3A"/>
<path transform="translate(1290,1355)" d="m0 0 5 2v2l10 3 9 1v2l-9 1-13-5-2-1z" fill="#AB663A"/>
<path transform="translate(1199,1566)" d="m0 0 5 2 6 4 2 5h2l-1 4-3-3-1-3-5-4-6-1-5 2-2 4-1-3 4-4z" fill="#AD683C"/>
<path transform="translate(469,1555)" d="m0 0 8 3-3 2-3 1-1 4 2 8-5-5v-4l-1-4 2-4z" fill="#AC663A"/>
<path transform="translate(835,1493)" d="m0 0 5 4 1 6-2 2-4-1-3-2h2v-8z" fill="#AD683C"/>
<path transform="translate(931,1353)" d="m0 0h3l3 7 5 3v2l5 2-2 3h-2l-11-11z" fill="#A26D3A"/>
<path transform="translate(531,1428)" d="m0 0 7 1 2 2v3l2 1-2 8-2-2v-8l-6-2-5 2-3-2z" fill="#AC673B"/>
<path transform="translate(562,1355)" d="m0 0 4 2 3 5 7 5v3l-6-1-7-9z" fill="#A26D3A"/>
<path transform="translate(607,1371)" d="m0 0 2 1-1 4-2 1h-9l-2 1-6-2-1-3 4-1 7 2 8 1z" fill="#AC663A"/>
<path transform="translate(1126,1515)" d="m0 0 6 2 2 4 3 1-2 4-5-3-1 4-2-9z" fill="#AE6A3D"/>
<path transform="translate(593,1380)" d="m0 0 5 1v2l3 1 1 3 2 2-1 1h-6l-4-8z" fill="#AD693D"/>
<path transform="translate(1330,1577)" d="m0 0 4 1 9 2 2 4-1 5-2-1-3-5-10-4z" fill="#AC663A"/>
<path transform="translate(770,840)" d="m0 0m-1 1m-1 1m-2 1 2 1-3 3 4-1v3l-4 3h-3l-1 2-4 1 3-6z" fill="#AC6D3F"/>
<path transform="translate(1041,1567)" d="m0 0 6 2-1 3-8-1-9 3h-3l4-4z" fill="#AC663A"/>
<path transform="translate(681,1435)" d="m0 0h2l-1 13h-8l5-6z" fill="#C48D62"/>
<path transform="translate(1374,1425)" d="m0 0 1 2 6-1 6 3 1 2-2 2v-2l-11-1-4 1-1-2 4-1z" fill="#AC673B"/>
<path transform="translate(1474,667)" d="m0 0h3l-1 3-9 7-7 6 2-4zm-16 16 2 1-3 2z" fill="#AA6F3F"/>
<path transform="translate(1494,1577)" d="m0 0 10 3 2 6-1 4h-2l-2-8-8-2z" fill="#AD673B"/>
<path transform="translate(1447,1580)" d="m0 0 7 1 2 2-1 2h-7l-4-1v-3z" fill="#AC663A"/>
<path transform="translate(1182,1440)" d="m0 0 3 1 1 5-1 1h-8l2-5h3z" fill="#A87241"/>
<path transform="translate(653,1499)" d="m0 0h7v2l4 1-3 2h-7l-3-1v-2h2z" fill="#AD673B"/>
<path transform="translate(981,1372)" d="m0 0 2 2 1 6-4 5-1-4-1-3z" fill="#AA683A"/>
<path transform="translate(1196,1507)" d="m0 0 7 1v2l5 2-1 3-5-2-6-4z" fill="#AC663A"/>
<path transform="translate(1541,876)" d="m0 0 5 1 9 7-1 2-11-6v-3z" fill="#DFC9B9"/>
<path transform="translate(930,1208)" d="m0 0 9 2v3h-12l3-1z" fill="#C8966E"/>
<path transform="translate(1188,1494)" d="m0 0 1 3h2l4 5-1 3-6-2z" fill="#AA6B3C"/>
<path transform="translate(1350,796)" d="m0 0 1 4-7 5-3 3-2-1z" fill="#C2895C"/>
<path transform="translate(1423,779)" d="m0 0 1 2-3 10h-3l2-9h2z" fill="#A26D3A"/>
<path transform="translate(631,1557)" d="m0 0 8 1-1 2-5 1-2 5h-1l-1-7h2z" fill="#AC663A"/>
<path transform="translate(1070,1342)" d="m0 0 5 2 1 5-5-2-3-3h2z" fill="#A26C3A"/>
<path transform="translate(1526,866)" d="m0 0 8 4v3l-4-1-4-4z" fill="#B78C6D"/>
<path transform="translate(1028,1447)" d="m0 0 2 1z" fill="#E0C3AD"/>
</svg>
